<svg width="9" height="9" viewBox="0 0 9 9" fill="none" xmlns="http://www.w3.org/2000/svg">
<path d="M4 8.07107C4 8.34721 4.22386 8.57107 4.5 8.57107C4.77614 8.57107 5 8.34721 5 8.07107H4ZM4.85355 0.646447C4.65829 0.451184 4.34171 0.451184 4.14645 0.646447L0.964466 3.82843C0.769204 4.02369 0.769204 4.34027 0.964466 4.53553C1.15973 4.7308 1.47631 4.7308 1.67157 4.53553L4.5 1.70711L7.32843 4.53553C7.52369 4.7308 7.84027 4.7308 8.03553 4.53553C8.2308 4.34027 8.2308 4.02369 8.03553 3.82843L4.85355 0.646447ZM5 8.07107V1H4L4 8.07107H5Z" fill="#71BC00"/>
</svg>
