<svg width="164" height="28" viewBox="0 0 164 28" fill="none" xmlns="http://www.w3.org/2000/svg">
<g clip-path="url(#clip0_597_2548)">
<path d="M124.095 28.0426V21.7806H136.466V18.7433C136.163 18.7433 135.505 18.7433 135.505 18.7433L127.089 18.7576C127.089 18.7576 127.089 17.2922 127.089 15.7321H124.12V6.16642H127.064V3.21313H142.69V9.4768H130.528V12.3494H139.706V15.5228H142.695V24.9003H139.764V28.0426H124.096H124.095Z" fill="#657204"/>
<path d="M109.725 18.5815V27.9035H103.578V3.03198H119.122V5.97015H122.134V15.5333H119.212V18.3454H122.117V27.9102H115.828V21.8045H112.75C112.75 20.8962 112.757 18.5815 112.757 18.5815C112.757 18.5815 111.1 18.5815 109.726 18.5815H109.725ZM115.912 9.23683H109.792V12.1254H115.912V9.23683Z" fill="#657204"/>
<path d="M101.375 28.0049H85.8003V24.897H82.8027V6.12957H85.7446V3.12671H101.351V9.42734H89.1993V12.2714H95.2053V18.6376H89.0525V21.6547H101.375V28.0041V28.0049Z" fill="#657204"/>
<path d="M157.289 12.2497V18.6436H151.103V21.6271H163.431V27.9991H147.898V24.924H144.887V6.09104H147.82V3.14111H163.441V9.40057H151.283V12.2497H157.289Z" fill="#657204"/>
<path d="M62.0732 3.09302H68.1813V18.4224H74.2279V3.14931H80.6135V21.8277H77.6547C77.6547 22.6425 77.6547 23.6155 77.6547 24.881C77.0004 24.881 75.4492 24.8743 74.6184 24.8743C74.6184 25.3612 74.6184 27.3596 74.6184 28.0166C72.6481 28.0653 70.1246 28.0468 68.0725 28.0468V24.8751C67.564 24.8751 65.0202 24.8751 65.0202 24.8751C65.0202 24.8751 65.0202 23.1999 65.0202 21.8748H62.0749L62.0732 3.09302Z" fill="#657204"/>
<path d="M109.725 15.6513V24.9733H103.578V0.101807H119.122V3.03997H122.134V12.6031H119.212V15.4152H122.117V24.98H115.828V18.8743H112.75C112.75 17.9661 112.757 15.6513 112.757 15.6513C112.757 15.6513 111.1 15.6513 109.726 15.6513H109.725ZM115.912 6.30665H109.792V9.19525H115.912V6.30665Z" fill="#B6CD06"/>
<path d="M124.095 24.9496V18.6876H136.466V15.6503C136.163 15.6503 135.505 15.6503 135.505 15.6503L127.089 15.6646C127.089 15.6646 127.089 14.1992 127.089 12.639H124.12V3.07341H127.064V0.120117H142.69V6.38378H130.528V9.25641H139.706V12.4298H142.695V21.8073H139.764V24.9496H124.096H124.095Z" fill="#B6CD06"/>
<path d="M101.375 24.9822H85.8003V21.8743H82.8027V3.10686H85.7446V0.104004H101.351V6.40463H89.1993V9.2487H95.2053V15.6149H89.0525V18.632H101.375V24.9814V24.9822Z" fill="#B6CD06"/>
<path d="M157.289 9.22697V15.6209H151.103V18.6044H163.431V24.9764H147.898V21.9013H144.887V3.06834H147.82V0.118408H163.441V6.37787H151.283V9.22697H157.289Z" fill="#B6CD06"/>
<path d="M62.0732 0.0705566H68.1813V15.3999H74.2279V0.12685H80.6135V18.8052H77.6547C77.6547 19.6201 77.6547 20.593 77.6547 21.8585C77.0004 21.8585 75.4492 21.8518 74.6184 21.8518C74.6184 22.3388 74.6184 24.3372 74.6184 24.9941C72.6481 25.0429 70.1246 25.0244 68.0725 25.0244V21.8526C67.564 21.8526 65.0202 21.8526 65.0202 21.8526C65.0202 21.8526 65.0202 20.1774 65.0202 18.8523H62.0749L62.0732 0.0705566Z" fill="#B6CD06"/>
<path d="M50.4367 9.60433H41.3294V3.28857H59.8823V12.5971H56.9345V15.7697H53.9142V18.7793H50.7404V21.8157H59.8578V28.1575H41.3252V18.6768H44.2283V15.6571H47.2882C47.2882 14.9426 47.2882 12.4475 47.2882 12.4475C47.2882 12.4475 49.738 12.4475 50.4367 12.4475V9.60349V9.60433Z" fill="#763B34"/>
<path d="M18.5655 28.1577H12.2348V22.0612H6.37884V28.1627H0V18.6963H2.88705V12.6712H0.0092777V3.30134H6.11822V9.35999H12.1648V3.29126H18.5647V12.5973H15.6464V18.6223H18.5647L18.5655 28.1577Z" fill="#763B34"/>
<path d="M39.6717 23.8904H36.5586V27.9653H23.7816V23.7551H33.0677V19.7886H23.747V15.5271H20.5664V3.10058H27.049V15.3851H33.1276V3.09302H39.6717V23.8904Z" fill="#763B34"/>
<path d="M50.4367 6.51155H41.3294V0.195801H59.8823V9.50433H56.9345V12.6769H53.9142V15.6865H50.7404V18.723H59.8578V25.0648H41.3252V15.584H44.2283V12.5643H47.2882C47.2882 11.8498 47.2882 9.35478 47.2882 9.35478C47.2882 9.35478 49.738 9.35478 50.4367 9.35478V6.51071V6.51155Z" fill="#FCC43C"/>
<path d="M18.5655 25.0647H12.2348V18.9682H6.37884V25.0697H0V15.6032H2.88705V9.57819H0.0092777V0.208325H6.11822V6.26698H12.1648V0.198242H18.5647V9.50425H15.6464V15.5293H18.5647L18.5655 25.0647Z" fill="#FCC43C"/>
<path d="M39.6717 20.7974H36.5586V24.8723H23.7816V20.6621H33.0677V16.6955H23.747V12.4341H20.5664V0.00756176H27.049V12.2921H33.1276V0H39.6717V20.7974Z" fill="#FCC43C"/>
</g>
<defs>
<clipPath id="clip0_597_2548">
<rect width="163.442" height="28" fill="white"/>
</clipPath>
</defs>
</svg>
