<svg width="477" height="477" viewBox="0 0 477 477" fill="none" xmlns="http://www.w3.org/2000/svg">
<path d="M345.395 52.5422C349.6 45.258 351.703 41.6158 355.05 39.6471C357.616 38.138 361.15 37.378 364.109 37.6992C367.969 38.1183 371.081 40.3569 377.305 44.8342C405.017 64.7686 428.125 90.4326 445.053 120.076C448.856 126.734 450.757 130.063 450.77 133.946C450.78 136.922 449.655 140.358 447.886 142.752C445.578 145.874 441.736 147.585 434.052 151.006C426.338 154.441 422.48 156.158 419.141 156.067C416.165 155.986 413.946 155.29 411.457 153.657C408.664 151.823 406.199 147.747 401.269 139.594C388.798 118.971 372.524 100.897 353.317 86.3383C345.725 80.583 341.928 77.7054 340.397 74.7361C339.033 72.0908 338.572 69.8103 338.803 66.8429C339.062 63.512 341.173 59.8554 345.395 52.5422Z" fill="#E062F4"/>
<path d="M131.023 423.871C126.818 431.155 124.715 434.797 121.368 436.766C118.803 438.276 115.269 439.036 112.31 438.715C108.449 438.296 105.337 436.057 99.113 431.581C75.1705 414.359 54.5761 392.799 38.4367 367.95C22.2974 343.101 10.9743 315.519 4.977 286.642C3.4179 279.135 2.63835 275.382 3.82545 271.685C4.73536 268.851 6.867 265.931 9.28894 264.201C12.4487 261.944 16.6311 261.505 24.996 260.625C33.3944 259.742 37.5936 259.3 40.7418 260.418C43.5465 261.414 45.4426 262.763 47.3044 265.085C49.3943 267.691 50.4793 272.33 52.6493 281.607C57.6575 303.017 66.348 323.46 78.3901 342.001C90.4322 360.541 105.575 376.794 123.099 390.075C130.691 395.83 134.488 398.707 136.019 401.677C137.384 404.322 137.845 406.602 137.614 409.57C137.355 412.901 135.245 416.557 131.023 423.871Z" fill="#D7D7D7"/>
<path d="M434.052 151.006C441.736 147.585 445.578 145.874 449.443 146.249C452.405 146.536 455.711 147.999 457.916 149.998C460.793 152.606 461.995 156.246 464.399 163.526C473.644 191.532 477.631 221.08 476.08 250.67C474.53 280.26 467.476 309.229 455.353 336.115C452.202 343.105 450.626 346.599 447.493 348.892C445.091 350.65 441.65 351.759 438.674 351.735C434.791 351.703 431.149 349.601 423.865 345.395C416.551 341.173 412.895 339.062 411.005 336.306C409.322 333.852 408.58 331.646 408.439 328.673C408.281 325.336 410.129 320.946 413.827 312.166C422.362 291.901 427.348 270.255 428.505 248.177C429.662 226.099 426.966 204.05 420.596 183.004C417.837 173.885 416.457 169.326 416.963 166.024C417.414 163.082 418.382 160.966 420.313 158.701C422.48 156.158 426.338 154.441 434.052 151.006Z" fill="#C5FF6D"/>
<path d="M423.865 345.395C431.149 349.6 434.791 351.703 436.76 355.05C438.269 357.616 439.029 361.15 438.708 364.109C438.289 367.969 436.05 371.081 431.573 377.305C411.638 405.017 385.974 428.125 356.331 445.053C349.673 448.856 346.344 450.757 342.461 450.77C339.484 450.78 336.049 449.655 333.655 447.886C330.532 445.578 328.822 441.736 325.401 434.052C321.966 426.338 320.249 422.48 320.34 419.141C320.42 416.165 321.117 413.946 322.75 411.457C324.583 408.664 328.66 406.199 336.812 401.269C357.436 388.798 375.51 372.524 390.068 353.317C395.824 345.725 398.701 341.928 401.671 340.397C404.316 339.033 406.597 338.572 409.564 338.803C412.895 339.062 416.551 341.173 423.865 345.395Z" fill="#72ECF0"/>
<path d="M325.401 434.052C328.822 441.736 330.533 445.578 330.158 449.443C329.871 452.405 328.408 455.711 326.409 457.916C323.801 460.793 320.161 461.995 312.88 464.399C280.465 475.101 246.119 478.711 212.187 474.982C204.566 474.145 200.755 473.726 197.606 471.454C195.192 469.713 193.074 466.783 192.177 463.945C191.008 460.243 191.882 456.129 193.631 447.902C195.386 439.642 196.264 435.512 198.301 432.863C200.115 430.504 201.983 429.117 204.767 428.064C207.892 426.882 212.639 427.284 222.132 428.087C246.147 430.12 270.335 427.578 293.402 420.597C302.522 417.837 307.081 416.457 310.383 416.963C313.325 417.415 315.441 418.382 317.706 420.313C320.249 422.48 321.966 426.338 325.401 434.052Z" fill="#5E62D7"/>
<path d="M193.631 447.902C191.882 456.129 191.008 460.242 188.433 463.149C186.459 465.377 183.333 467.192 180.419 467.801C176.619 468.595 172.967 467.428 165.664 465.093C157.028 462.332 148.557 459.08 140.292 455.353C133.302 452.202 129.808 450.626 127.515 447.493C125.757 445.091 124.648 441.65 124.672 438.674C124.704 434.791 126.806 431.149 131.012 423.865C135.234 416.551 137.345 412.895 140.101 411.005C142.555 409.322 144.761 408.58 147.734 408.439C151.071 408.281 155.461 410.129 164.241 413.827C167.997 415.409 171.803 416.87 175.653 418.208C184.652 421.335 189.152 422.899 191.526 425.249C193.641 427.344 194.783 429.37 195.481 432.264C196.264 435.511 195.386 439.642 193.631 447.902Z" fill="#F15AB9"/>
<path d="M24.9669 260.346C16.6008 261.214 12.4178 261.649 8.85967 260.094C6.1324 258.902 3.44316 256.486 1.96703 253.902C0.0412235 250.53 0.027927 246.696 0.00133394 239.029C-0.118351 204.523 7.26175 170.302 21.7443 138.773C36.2268 107.245 57.3795 79.3502 83.6347 56.9593C89.4683 51.9843 92.3852 49.4967 96.1978 48.7609C99.1202 48.1968 102.705 48.6629 105.386 49.9553C108.884 51.6415 111.28 55.0978 116.072 62.0106C120.882 68.9508 123.288 72.421 123.82 75.7192C124.295 78.6575 124.024 80.9682 122.882 83.7169C121.601 86.8024 118.055 89.9832 110.962 96.3447C91.6139 113.699 75.9552 134.888 65.0361 158.659C54.1169 182.43 48.2445 208.115 47.6848 234.1C47.4796 243.625 47.377 248.388 45.8712 251.37C44.5296 254.027 42.9533 255.738 40.4151 257.293C37.566 259.037 33.3663 259.474 24.9669 260.346Z" fill="#FD7257"/>
<path d="M115.739 62.2417C110.934 55.338 108.532 51.8862 108.173 48.0198C107.898 45.0562 108.713 41.5341 110.262 38.9925C112.282 35.6767 115.632 33.8119 122.331 30.0822C154.674 12.0749 190.873 1.79864 228.075 0.215411C265.278 -1.36782 302.219 5.79579 335.975 20.9901C342.967 24.1372 346.463 25.7107 348.758 28.8429C350.517 31.2437 351.628 34.6838 351.606 37.66C351.577 41.5429 349.476 45.1864 345.275 52.4733C341.058 59.7892 338.949 63.4472 336.195 65.3386C333.742 67.0236 331.537 67.7663 328.564 67.9094C325.227 68.0701 320.835 66.224 312.053 62.5319C286.244 51.6825 258.266 46.6144 230.101 47.813C201.936 49.0116 174.489 56.4385 149.696 69.4413C141.259 73.8662 137.04 76.0787 133.701 76.2022C130.727 76.3122 128.467 75.7594 125.879 74.289C122.975 72.6384 120.563 69.1728 115.739 62.2417Z" fill="#FFD200"/>
</svg>
